<?xml version="1.0" standalone="yes"?>

<svg version="1.1" viewBox="0.0 0.0 486.37532808398953 301.93438320209975" fill="none" stroke="none" stroke-linecap="square" stroke-miterlimit="10" xmlns="http://www.w3.org/2000/svg" xmlns:xlink="http://www.w3.org/1999/xlink"><clipPath id="p.0"><path d="m0 0l486.37534 0l0 301.9344l-486.37534 0l0 -301.9344z" clip-rule="nonzero"></path></clipPath><g clip-path="url(#p.0)"><path fill="#000000" fill-opacity="0.0" d="m0 0l486.37534 0l0 301.9344l-486.37534 0z" fill-rule="nonzero"></path><path fill="#93c47d" d="m55.27559 277.07086l127.74803 -243.18109l127.74805 243.18109z" fill-rule="nonzero"></path><path stroke="#93c47d" stroke-width="4.0" stroke-linejoin="round" stroke-linecap="butt" d="m55.27559 277.07086l127.74803 -243.18109l127.74805 243.18109z" fill-rule="nonzero"></path><path fill="#93c47d" d="m198.33595 277.06955l120.818985 -176.22046l121.38574 176.22046z" fill-rule="nonzero"></path><path stroke="#93c47d" stroke-width="4.0" stroke-linejoin="round" stroke-linecap="butt" d="m198.33595 277.06955l120.818985 -176.22046l121.38574 176.22046z" fill-rule="nonzero"></path><path fill="#000000" fill-opacity="0.0" d="m-4.480321 246.33072l130.77165 -246.3307l57.92125 30.740156l-130.77164 246.33069z" fill-rule="nonzero"></path><path fill="#274e13" d="m32.603718 210.04787l25.972076 3.8603668l-17.773666 -19.303467l4.3299904 -8.1562805l30.142899 15.997543l-3.3042755 6.224167l-8.239609 -4.3729553l-13.899853 -8.172989l18.146496 20.067383l-2.2639084 4.26445l-26.749565 -3.7953796l14.531639 6.91626l8.239613 4.3729553l-3.2969475 6.2103577l-30.142902 -15.997528l4.308014 -8.114883zm33.433285 -17.758347q-3.32621 -1.7653046 -5.2533607 -4.433182q-1.9271507 -2.6678772 -2.066578 -5.8374786q-0.15322876 -3.1769257 1.5392036 -6.364914q2.4031067 -4.5266724 6.701168 -5.9249268q4.298065 -1.3982697 9.235489 0.79759216l1.5539703 0.7716522q5.1480255 2.732193 6.735962 7.2719727q1.5952606 4.526001 -0.9763565 9.370087q-2.5716171 4.8440704 -7.215576 6.0941467q-4.636635 1.2362671 -9.97789 -1.5984497l-0.2760315 -0.14649963zm3.621376 -5.7551575q3.1881943 1.6920471 5.509407 1.3850098q2.3212204 -0.30703735 3.5081177 -2.5427704q1.1502686 -2.1667175 0.13880157 -4.2601776q-1.0179367 -2.1145782 -4.6891937 -4.0630035q-3.1191788 -1.655426 -5.4826508 -1.335434q-2.3699493 0.29885864 -3.5421982 2.5069885q-1.1649208 2.194336 -0.090919495 4.3032837q1.0601959 2.1016388 4.648636 4.0061035zm25.861176 -27.720627q1.5117569 3.6502838 -0.56166077 7.5559235q-1.9122238 3.602005 -4.9935455 4.407791q-3.0739899 0.7919769 -7.0984573 -1.2908478l-14.671204 -7.7863464l3.179718 -5.9895477l14.46418 7.676483q3.5056305 1.8605194 5.198059 -1.3274689q1.6118469 -3.0361786 0.108291626 -5.302353l-15.858147 -8.41629l3.1870499 -6.003357l22.400146 11.88829l-2.989235 5.630722l-2.3651962 -1.0429993zm-11.726639 -26.495392l2.676155 1.1903381q-1.7201462 -3.9908295 0.42653656 -8.03447q1.8902512 -3.560608 4.911255 -4.1861343q3.0071945 -0.632843 7.183487 1.5305481l14.477974 7.6837997l-3.179718 5.9895477l-14.326157 -7.6032257q-1.9046402 -1.0108337 -3.199936 -0.6369324q-1.3090973 0.3665924 -2.3274918 2.2848969q-1.3407593 2.5255432 0.13826752 4.9378967l15.80294 8.386993l-3.1724014 5.975754l-22.400146 -11.88829l2.989235 -5.630722zm7.9776382 -28.323013l5.506874 2.9226303l2.029457 -3.8228302l4.388939 2.3293152l-2.029457 3.8228226l11.179375 5.9331512q1.2421494 0.6592407 2.0295181 0.47568512q0.794693 -0.19735718 1.5053711 -1.5360336q0.5275116 -0.99366 0.7859802 -1.847084l4.540756 2.4098892q-0.3995285 2.0521698 -1.3886185 3.9152832q-3.3409042 6.293167 -9.769424 3.0406036l-12.062683 -6.401947l-1.7363892 3.2707977l-4.388939 -2.3293152l1.7363892 -3.27079l-5.506874 -2.9226303l3.1797256 -5.9895477zm38.596466 -5.3244705q-1.0341034 -0.0181427 -2.3300934 -0.47599792q1.2714996 3.4697037 -0.57479095 6.94751q-1.7437134 3.2845917 -4.7986145 4.440483q-3.0549088 1.155899 -5.9532623 -0.38233185q-3.5608368 -1.8898163 -4.066101 -5.536606q-0.49793243 -3.6605835 2.1193466 -8.657326l1.4653091 -2.7601624l-1.2835541 -0.6812134q-1.5457916 -0.8203888 -2.8954468 -0.51071167q-1.3634567 0.30236053 -2.2719421 2.0136566q-0.80592346 1.5180893 -0.5286789 2.761963q0.263443 1.2365417 1.5193939 1.9031067l-3.1797256 5.9895477q-1.9460373 -1.0328064 -2.9648285 -3.112465q-1.0187912 -2.0796509 -0.7923889 -4.772072q0.22640991 -2.692421 1.677063 -5.42498q2.1979675 -4.1402435 5.571495 -5.463127q3.3670578 -1.344017 7.134918 0.6556778l9.7163925 5.1567154q3.1955185 1.6782455 5.2856827 1.6731339l0.3588562 0.19044495l-3.2090302 6.044754zm-6.7910233 2.7285767q0.7033539 -1.3248825 0.71713257 -2.750389q-2.2888184E-5 -1.4328384 -0.7080078 -2.4984589l-3.8506775 -2.0436401l-1.1868973 2.235733q-2.3884583 4.4990616 0.5630646 6.4369736l0.33771515 0.1969223q1.1179428 0.5933151 2.267044 0.19489288q1.1352997 -0.4057541 1.8606262 -1.7720337zm15.31913 -18.792717l-3.1870575 6.0033493l-22.400146 -11.888275l3.1870499 -6.003357l22.400154 11.888283zm-31.567078 -8.616356q-1.3525696 -0.7178421 -1.7458496 -2.0763626q-0.39328003 -1.3585205 0.4346161 -2.918007q0.8132477 -1.5318909 2.1663055 -1.9812775q1.3530655 -0.4493866 2.7056274 0.2684555q1.3663712 0.7251587 1.7449951 2.1112823q0.3786316 1.3861237 -0.42729187 2.904213q-0.7985916 1.5042877 -2.1589813 1.9674683q-1.3530579 0.4493866 -2.7194214 -0.2757721zm14.709457 -13.7122345l2.6761627 1.190342q-1.7201462 -3.990841 0.42652893 -8.034477q1.8902512 -3.560608 4.911255 -4.1861267q3.0072021 -0.632843 7.183487 1.5305405l14.477982 7.6837997l-3.179718 5.9895515l-14.326172 -7.6032257q-1.9046326 -1.0108337 -3.1999207 -0.63692856q-1.3090973 0.36658096 -2.3274994 2.284893q-1.3407516 2.525547 0.13827515 4.9379044l15.802933 8.386986l-3.1723938 5.975754l-22.400154 -11.888283l2.989235 -5.6307297z" fill-rule="nonzero"></path><path fill="#000000" fill-opacity="0.0" d="m367.643 64.97639l123.212616 178.70868l-50.64569 34.92914l-123.212585 -178.70868z" fill-rule="nonzero"></path><path fill="#274e13" d="m390.9781 122.98618l-15.398712 21.268318l25.323273 -6.873642l5.2416687 7.602539l-28.091858 19.374298l-3.9999695 -5.801605l7.678955 -5.29599l13.6604 -8.567154l-26.173035 6.8523407l-2.74057 -3.974945l15.699493 -21.98822l-12.836487 9.707153l-7.678955 5.29599l-3.9910889 -5.788742l28.091858 -19.37429l5.215027 7.5639496zm-3.4490356 55.94227q-3.1662903 -4.592407 -2.3449402 -9.42952q0.8302307 -4.8242645 5.525055 -8.06218l0.5402527 -0.3725891q3.1384583 -2.1645203 6.4546204 -2.6674347q3.3250427 -0.490036 6.197113 0.8128357q2.880951 1.3157196 4.849884 4.171509q2.9534302 4.283661 1.9462891 8.603577q-1.0071411 4.319916 -5.9592285 7.7352448l-2.2766724 1.5701752l-9.161804 -13.288376q-1.8589172 1.6806335 -2.162445 3.8829498q-0.29467773 2.2151947 1.1421204 4.2991333q2.2261353 3.228836 5.8048096 3.4369965l-1.1721497 4.851303q-2.644226 -0.036468506 -5.1286316 -1.4927979q-2.4627075 -1.4523315 -4.2542725 -4.050827zm16.689484 -12.459381q-1.144104 -1.6594391 -2.9726868 -1.9167786q-1.8285828 -0.25732422 -4.1163025 0.88391113l5.3480835 7.756912l0.4501953 -0.31048584q1.825592 -1.3160248 2.1636963 -2.9727478q0.35095215 -1.6656036 -0.87298584 -3.4408112zm5.3695984 31.268646q1.0161438 -0.70080566 0.9071655 -2.125122q-0.10897827 -1.4243164 -1.189148 -3.9819794q-3.5788574 -8.521576 1.1931458 -11.812714q2.7783203 -1.916153 6.218109 -0.89094543q3.4615173 1.0292053 6.0246887 4.7468567q2.74057 3.974945 2.503418 7.649933q-0.21542358 3.6789703 -3.199524 5.7370453l-3.8492126 -5.5829163q1.196228 -0.8250122 1.4358215 -2.1291046q0.25247192 -1.3129578 -0.87390137 -2.9466705q-0.97561646 -1.4150238 -2.150879 -1.7433014q-1.1624146 -0.3371582 -2.1399841 0.33703613q-0.9260864 0.63871765 -0.90179443 1.9126587q0.04598999 1.2779236 1.0711975 3.645752q1.0252075 2.367813 1.4822998 4.1594086q1.4214478 5.53006 -2.5659485 8.280075q-2.8554993 1.9693604 -6.3245544 0.73657227q-3.4472961 -1.2288055 -6.116913 -5.10083q-1.8092957 -2.624237 -2.2805176 -5.317169q-0.4623413 -2.6800842 0.36010742 -4.9555817q0.83532715 -2.2843628 2.7261353 -3.5883942l3.6452026 5.2870483q-1.4259949 1.0973511 -1.5227966 2.6635895q-0.07510376 1.5702515 1.1133728 3.2940063q1.099762 1.5951233 2.2719421 2.0014648q1.1721497 0.4063568 2.1625671 -0.27671814zm22.788452 5.6081543q4.1880493 0.37628174 6.502899 3.7337646q4.682892 6.7921143 -3.13089 12.332962l-13.377075 9.225845l-3.8492126 -5.5829163l13.222717 -9.1194q1.7879028 -1.2330627 2.1175537 -2.5992584q0.32965088 -1.3661957 -0.9031677 -3.1542664q-1.6940002 -2.4570007 -4.338684 -2.246399l-14.843414 10.237152l-3.8491821 -5.5829163l29.635345 -20.438812l3.8492126 5.5829163l-11.036102 7.611328z" fill-rule="nonzero"></path><path fill="#000000" fill-opacity="0.0" d="m175.56036 84.796585l-49.700783 120.72441" fill-rule="nonzero"></path><path stroke="#ffff00" stroke-width="4.0" stroke-linejoin="round" stroke-linecap="butt" stroke-dasharray="4.0,12.0" d="m175.56036 84.796585l-49.700783 120.72441" fill-rule="nonzero"></path><path fill="#000000" fill-opacity="0.0" d="m134.55644 209.02188l110.83464 -46.4252" fill-rule="nonzero"></path><path stroke="#ffff00" stroke-width="4.0" stroke-linejoin="round" stroke-linecap="butt" stroke-dasharray="4.0,12.0" d="m134.55644 209.02188l110.83464 -46.4252" fill-rule="nonzero"></path><path fill="#000000" fill-opacity="0.0" d="m190.5971 84.78871l54.80316 77.82677" fill-rule="nonzero"></path><path stroke="#ffff00" stroke-width="4.0" stroke-linejoin="round" stroke-linecap="butt" stroke-dasharray="4.0,12.0" d="m190.5971 84.78871l54.80316 77.82677" fill-rule="nonzero"></path><path fill="#000000" fill-opacity="0.0" d="m311.96326 126.74672l-37.13385 35.87401" fill-rule="nonzero"></path><path stroke="#ffff00" stroke-width="4.0" stroke-linejoin="round" stroke-linecap="butt" stroke-dasharray="4.0,12.0" d="m311.96326 126.74672l-37.13385 35.87401" fill-rule="nonzero"></path><path fill="#000000" fill-opacity="0.0" d="m274.82547 162.60498l62.614166 66.834656" fill-rule="nonzero"></path><path stroke="#ffff00" stroke-width="4.0" stroke-linejoin="round" stroke-linecap="butt" stroke-dasharray="4.0,12.0" d="m274.82547 162.60498l62.614166 66.834656" fill-rule="nonzero"></path><path fill="#000000" fill-opacity="0.0" d="m348.9042 205.521l-21.88977 -78.77165" fill-rule="nonzero"></path><path stroke="#ffff00" stroke-width="4.0" stroke-linejoin="round" stroke-linecap="butt" stroke-dasharray="4.0,12.0" d="m348.9042 205.521l-21.88977 -78.77165" fill-rule="nonzero"></path><path fill="#000000" fill-opacity="0.0" d="m140.54724 238.63911l193.6063 2.740158" fill-rule="nonzero"></path><path stroke="#ffff00" stroke-width="4.0" stroke-linejoin="round" stroke-linecap="butt" stroke-dasharray="4.0,12.0" d="m140.54724 238.63911l193.6063 2.740158" fill-rule="nonzero"></path><path fill="#0000ff" d="m195.35826 62.930447l-24.59842 0l0 -24.594227l12.29921 -6.1485558l12.29921 6.1485558z" fill-rule="nonzero"></path><path stroke="#0000ff" stroke-width="4.0" stroke-linejoin="round" stroke-linecap="butt" d="m195.35826 62.930447l-24.59842 0l0 -24.594227l12.29921 -6.1485558l12.29921 6.1485558z" fill-rule="nonzero"></path><path fill="#0000ff" d="m170.75984 26.38189l0 0c0 -6.601324 5.506546 -11.952756 12.29921 -11.952756l0 0c3.261963 0 6.3903046 1.259305 8.696854 3.5008821c2.306549 2.2415752 3.602356 5.281807 3.602356 8.451874l0 0c0 6.601326 -5.506546 11.952755 -12.29921 11.952755l0 0c-6.7926636 0 -12.29921 -5.351429 -12.29921 -11.952755z" fill-rule="nonzero"></path><path stroke="#0000ff" stroke-width="4.0" stroke-linejoin="round" stroke-linecap="butt" d="m170.75984 26.38189l0 0c0 -6.601324 5.506546 -11.952756 12.29921 -11.952756l0 0c3.261963 0 6.3903046 1.259305 8.696854 3.5008821c2.306549 2.2415752 3.602356 5.281807 3.602356 8.451874l0 0c0 6.601326 -5.506546 11.952755 -12.29921 11.952755l0 0c-6.7926636 0 -12.29921 -5.351429 -12.29921 -11.952755z" fill-rule="nonzero"></path><path fill="#0000ff" d="m170.75984 57.48163l9.574799 0l0 27.307083l-9.574799 0z" fill-rule="nonzero"></path><path stroke="#0000ff" stroke-width="4.0" stroke-linejoin="round" stroke-linecap="butt" d="m170.75984 57.48163l9.574799 0l0 27.307083l-9.574799 0z" fill-rule="nonzero"></path><path fill="#0000ff" d="m185.80971 57.48163l9.574814 0l0 27.307083l-9.574814 0z" fill-rule="nonzero"></path><path stroke="#0000ff" stroke-width="4.0" stroke-linejoin="round" stroke-linecap="butt" d="m185.80971 57.48163l9.574814 0l0 27.307083l-9.574814 0z" fill-rule="nonzero"></path><path fill="#0000ff" d="m168.3084 38.334644l6.551178 0l0 23.905514l-6.551178 0z" fill-rule="nonzero"></path><path stroke="#0000ff" stroke-width="4.0" stroke-linejoin="round" stroke-linecap="butt" d="m168.3084 38.334644l6.551178 0l0 23.905514l-6.551178 0z" fill-rule="nonzero"></path><path fill="#0000ff" d="m191.18767 38.334644l6.551178 0l0 23.905514l-6.551178 0z" fill-rule="nonzero"></path><path stroke="#0000ff" stroke-width="4.0" stroke-linejoin="round" stroke-linecap="butt" d="m191.18767 38.334644l6.551178 0l0 23.905514l-6.551178 0z" fill-rule="nonzero"></path><path fill="#0000ff" d="m272.4449 175.24803l-24.598434 0l0 -24.594223l12.29921 -6.1485596l12.299225 6.1485596z" fill-rule="nonzero"></path><path stroke="#0000ff" stroke-width="4.0" stroke-linejoin="round" stroke-linecap="butt" d="m272.4449 175.24803l-24.598434 0l0 -24.594223l12.29921 -6.1485596l12.299225 6.1485596z" fill-rule="nonzero"></path><path fill="#0000ff" d="m247.84645 138.69948l0 0c0 -6.6013336 5.506546 -11.952759 12.29921 -11.952759l0 0c3.261963 0 6.39032 1.2593079 8.696869 3.500885c2.306549 2.2415771 3.602356 5.2817993 3.602356 8.451874l0 0c0 6.6013184 -5.5065613 11.952759 -12.299225 11.952759l0 0c-6.7926636 0 -12.29921 -5.3514404 -12.29921 -11.952759z" fill-rule="nonzero"></path><path stroke="#0000ff" stroke-width="4.0" stroke-linejoin="round" stroke-linecap="butt" d="m247.84645 138.69948l0 0c0 -6.6013336 5.506546 -11.952759 12.29921 -11.952759l0 0c3.261963 0 6.39032 1.2593079 8.696869 3.500885c2.306549 2.2415771 3.602356 5.2817993 3.602356 8.451874l0 0c0 6.6013184 -5.5065613 11.952759 -12.299225 11.952759l0 0c-6.7926636 0 -12.29921 -5.3514404 -12.29921 -11.952759z" fill-rule="nonzero"></path><path fill="#0000ff" d="m247.84645 169.79921l9.574814 0l0 27.307083l-9.574814 0z" fill-rule="nonzero"></path><path stroke="#0000ff" stroke-width="4.0" stroke-linejoin="round" stroke-linecap="butt" d="m247.84645 169.79921l9.574814 0l0 27.307083l-9.574814 0z" fill-rule="nonzero"></path><path fill="#0000ff" d="m262.89633 169.79921l9.574799 0l0 27.307083l-9.574799 0z" fill-rule="nonzero"></path><path stroke="#0000ff" stroke-width="4.0" stroke-linejoin="round" stroke-linecap="butt" d="m262.89633 169.79921l9.574799 0l0 27.307083l-9.574799 0z" fill-rule="nonzero"></path><path fill="#0000ff" d="m245.39502 150.65224l6.551178 0l0 23.905502l-6.551178 0z" fill-rule="nonzero"></path><path stroke="#0000ff" stroke-width="4.0" stroke-linejoin="round" stroke-linecap="butt" d="m245.39502 150.65224l6.551178 0l0 23.905502l-6.551178 0z" fill-rule="nonzero"></path><path fill="#0000ff" d="m268.2743 150.65224l6.551178 0l0 23.905502l-6.551178 0z" fill-rule="nonzero"></path><path stroke="#0000ff" stroke-width="4.0" stroke-linejoin="round" stroke-linecap="butt" d="m268.2743 150.65224l6.551178 0l0 23.905502l-6.551178 0z" fill-rule="nonzero"></path><path fill="#0000ff" d="m361.2034 254.02231l-24.59842 0l0 -24.594223l12.299225 -6.1485596l12.299194 6.1485596z" fill-rule="nonzero"></path><path stroke="#0000ff" stroke-width="4.0" stroke-linejoin="round" stroke-linecap="butt" d="m361.2034 254.02231l-24.59842 0l0 -24.594223l12.299225 -6.1485596l12.299194 6.1485596z" fill-rule="nonzero"></path><path fill="#0000ff" d="m336.60498 217.47375l0 0c0 -6.6013336 5.5065613 -11.952759 12.299225 -11.952759l0 0c3.261963 0 6.3902893 1.2593079 8.696838 3.500885c2.306549 2.2415771 3.602356 5.2817993 3.602356 8.451874l0 0c0 6.6013184 -5.506531 11.952759 -12.299194 11.952759l0 0c-6.7926636 0 -12.299225 -5.3514404 -12.299225 -11.952759z" fill-rule="nonzero"></path><path stroke="#0000ff" stroke-width="4.0" stroke-linejoin="round" stroke-linecap="butt" d="m336.60498 217.47375l0 0c0 -6.6013336 5.5065613 -11.952759 12.299225 -11.952759l0 0c3.261963 0 6.3902893 1.2593079 8.696838 3.500885c2.306549 2.2415771 3.602356 5.2817993 3.602356 8.451874l0 0c0 6.6013184 -5.506531 11.952759 -12.299194 11.952759l0 0c-6.7926636 0 -12.299225 -5.3514404 -12.299225 -11.952759z" fill-rule="nonzero"></path><path fill="#0000ff" d="m336.60498 248.57349l9.574799 0l0 27.307098l-9.574799 0z" fill-rule="nonzero"></path><path stroke="#0000ff" stroke-width="4.0" stroke-linejoin="round" stroke-linecap="butt" d="m336.60498 248.57349l9.574799 0l0 27.307098l-9.574799 0z" fill-rule="nonzero"></path><path fill="#0000ff" d="m351.65485 248.57349l9.574799 0l0 27.307098l-9.574799 0z" fill-rule="nonzero"></path><path stroke="#0000ff" stroke-width="4.0" stroke-linejoin="round" stroke-linecap="butt" d="m351.65485 248.57349l9.574799 0l0 27.307098l-9.574799 0z" fill-rule="nonzero"></path><path fill="#0000ff" d="m334.15353 229.42651l6.551178 0l0 23.905502l-6.551178 0z" fill-rule="nonzero"></path><path stroke="#0000ff" stroke-width="4.0" stroke-linejoin="round" stroke-linecap="butt" d="m334.15353 229.42651l6.551178 0l0 23.905502l-6.551178 0z" fill-rule="nonzero"></path><path fill="#0000ff" d="m357.0328 229.42651l6.551178 0l0 23.905502l-6.551178 0z" fill-rule="nonzero"></path><path stroke="#0000ff" stroke-width="4.0" stroke-linejoin="round" stroke-linecap="butt" d="m357.0328 229.42651l6.551178 0l0 23.905502l-6.551178 0z" fill-rule="nonzero"></path><path fill="#0000ff" d="m138.1588 254.02231l-24.598434 0l0 -24.594223l12.299217 -6.1485596l12.299217 6.1485596z" fill-rule="nonzero"></path><path stroke="#0000ff" stroke-width="4.0" stroke-linejoin="round" stroke-linecap="butt" d="m138.1588 254.02231l-24.598434 0l0 -24.594223l12.299217 -6.1485596l12.299217 6.1485596z" fill-rule="nonzero"></path><path fill="#0000ff" d="m113.56036 217.47375l0 0c0 -6.6013336 5.506546 -11.952759 12.299217 -11.952759l0 0c3.2619553 0 6.390312 1.2593079 8.696861 3.500885c2.306549 2.2415771 3.602356 5.2817993 3.602356 8.451874l0 0c0 6.6013184 -5.506546 11.952759 -12.299217 11.952759l0 0c-6.792671 0 -12.299217 -5.3514404 -12.299217 -11.952759z" fill-rule="nonzero"></path><path stroke="#0000ff" stroke-width="4.0" stroke-linejoin="round" stroke-linecap="butt" d="m113.56036 217.47375l0 0c0 -6.6013336 5.506546 -11.952759 12.299217 -11.952759l0 0c3.2619553 0 6.390312 1.2593079 8.696861 3.500885c2.306549 2.2415771 3.602356 5.2817993 3.602356 8.451874l0 0c0 6.6013184 -5.506546 11.952759 -12.299217 11.952759l0 0c-6.792671 0 -12.299217 -5.3514404 -12.299217 -11.952759z" fill-rule="nonzero"></path><path fill="#0000ff" d="m113.56036 248.57349l9.574806 0l0 27.307098l-9.574806 0z" fill-rule="nonzero"></path><path stroke="#0000ff" stroke-width="4.0" stroke-linejoin="round" stroke-linecap="butt" d="m113.56036 248.57349l9.574806 0l0 27.307098l-9.574806 0z" fill-rule="nonzero"></path><path fill="#0000ff" d="m128.61023 248.57349l9.574814 0l0 27.307098l-9.574814 0z" fill-rule="nonzero"></path><path stroke="#0000ff" stroke-width="4.0" stroke-linejoin="round" stroke-linecap="butt" d="m128.61023 248.57349l9.574814 0l0 27.307098l-9.574814 0z" fill-rule="nonzero"></path><path fill="#0000ff" d="m111.108925 229.42651l6.551178 0l0 23.905502l-6.551178 0z" fill-rule="nonzero"></path><path stroke="#0000ff" stroke-width="4.0" stroke-linejoin="round" stroke-linecap="butt" d="m111.108925 229.42651l6.551178 0l0 23.905502l-6.551178 0z" fill-rule="nonzero"></path><path fill="#0000ff" d="m133.98819 229.42651l6.551178 0l0 23.905502l-6.551178 0z" fill-rule="nonzero"></path><path stroke="#0000ff" stroke-width="4.0" stroke-linejoin="round" stroke-linecap="butt" d="m133.98819 229.42651l6.551178 0l0 23.905502l-6.551178 0z" fill-rule="nonzero"></path><path fill="#0000ff" d="m331.7743 104.88845l-24.59845 0l0 -24.594223l12.299225 -6.1485596l12.299225 6.1485596z" fill-rule="nonzero"></path><path stroke="#0000ff" stroke-width="4.0" stroke-linejoin="round" stroke-linecap="butt" d="m331.7743 104.88845l-24.59845 0l0 -24.594223l12.299225 -6.1485596l12.299225 6.1485596z" fill-rule="nonzero"></path><path fill="#0000ff" d="m307.17584 68.3399l0 0c0 -6.601326 5.5065613 -11.952759 12.299225 -11.952759l0 0c3.261963 0 6.39032 1.259304 8.696869 3.5008812c2.306549 2.2415771 3.602356 5.2818108 3.602356 8.451878l0 0c0 6.601326 -5.5065613 11.952751 -12.299225 11.952751l0 0c-6.7926636 0 -12.299225 -5.351425 -12.299225 -11.952751z" fill-rule="nonzero"></path><path stroke="#0000ff" stroke-width="4.0" stroke-linejoin="round" stroke-linecap="butt" d="m307.17584 68.3399l0 0c0 -6.601326 5.5065613 -11.952759 12.299225 -11.952759l0 0c3.261963 0 6.39032 1.259304 8.696869 3.5008812c2.306549 2.2415771 3.602356 5.2818108 3.602356 8.451878l0 0c0 6.601326 -5.5065613 11.952751 -12.299225 11.952751l0 0c-6.7926636 0 -12.299225 -5.351425 -12.299225 -11.952751z" fill-rule="nonzero"></path><path fill="#0000ff" d="m307.17584 99.43964l9.574829 0l0 27.307083l-9.574829 0z" fill-rule="nonzero"></path><path stroke="#0000ff" stroke-width="4.0" stroke-linejoin="round" stroke-linecap="butt" d="m307.17584 99.43964l9.574829 0l0 27.307083l-9.574829 0z" fill-rule="nonzero"></path><path fill="#0000ff" d="m322.2257 99.43964l9.574829 0l0 27.307083l-9.574829 0z" fill-rule="nonzero"></path><path stroke="#0000ff" stroke-width="4.0" stroke-linejoin="round" stroke-linecap="butt" d="m322.2257 99.43964l9.574829 0l0 27.307083l-9.574829 0z" fill-rule="nonzero"></path><path fill="#0000ff" d="m304.7244 80.29265l6.5512085 0l0 23.905518l-6.5512085 0z" fill-rule="nonzero"></path><path stroke="#0000ff" stroke-width="4.0" stroke-linejoin="round" stroke-linecap="butt" d="m304.7244 80.29265l6.5512085 0l0 23.905518l-6.5512085 0z" fill-rule="nonzero"></path><path fill="#0000ff" d="m327.60367 80.29265l6.551178 0l0 23.905518l-6.551178 0z" fill-rule="nonzero"></path><path stroke="#0000ff" stroke-width="4.0" stroke-linejoin="round" stroke-linecap="butt" d="m327.60367 80.29265l6.551178 0l0 23.905518l-6.551178 0z" fill-rule="nonzero"></path></g></svg>

